<!-- Placeholder for favicon.ico - In a real project, you would have an actual .ico file here -->
<!-- For now, we'll create an SVG icon that browsers can use -->
<svg xmlns="http://www.w3.org/2000/svg" viewBox="0 0 32 32" width="32" height="32">
  <defs>
    <linearGradient id="heartGradient" x1="0%" y1="0%" x2="100%" y2="100%">
      <stop offset="0%" style="stop-color:#d946ef;stop-opacity:1" />
      <stop offset="100%" style="stop-color:#f59540;stop-opacity:1" />
    </linearGradient>
  </defs>
  <path d="M16 28c-1 0-2-1-2-2 0-1 1-2 2-2s2 1 2 2c0 1-1 2-2 2zm0-6c-1 0-2-1-2-2V8c0-3 2-5 5-5s5 2 5 5-2 5-5 5h-3v7c0 1-1 2-2 2z" fill="url(#heartGradient)"/>
</svg>
